#!OML:ASF X:\für Bonn\!DataBase\2005_08_11_Bastian_Final\c3d\Bastian.ASF
:FULLY-SPECIFIED
:DEGREES
123
root 0.4907 16.798 0.972806 176.239 -8.5463 -173.362
lowerback 18.7089 -2.88604 0.798939
upperback 2.47573 -3.93256 1.55264
thorax -7.72564 -2.07289 2.2219
lowerneck -13.455 -5.8218 -2.78275
upperneck -1.79978 -7.05297 10.2421
head 2.33384 -2.90791 3.45949
rclavicle 2.78299e-015 1.66979e-014
rhumerus 76.2779 12.0813 13.2422
rradius 40.4582
rwrist -67.8709
rhand -48.0845 -3.96116
rfingers 7.12502
rthumb -20.7496 -32.8718
lclavicle 2.78299e-015 1.66979e-014
lhumerus 74.8659 -18.7952 -35.0955
lradius 30.9225
lwrist 27.0065
lhand -44.3359 18.946
lfingers 7.12502
lthumb -17.1445 48.2096
rfemur -19.3924 -5.8568 25.3558
rtibia 52.006
rfoot -25.5218 -11.2387
rtoes -11.4124
lfemur -17.6468 0.717215 -14.7213
ltibia 49.4933
lfoot -24.4831 -10.1335
ltoes -17.2514
124
root 0.484903 16.9316 0.933631 176.331 -8.83207 -173.363
lowerback 18.111 -2.98465 0.653836
upperback 2.41413 -4.07757 1.57307
thorax -7.45255 -2.13366 2.32193
lowerneck -13.2491 -5.75173 -2.68339
upperneck -1.60176 -7.01147 10.1446
head 2.35028 -2.90223 3.41225
rclavicle -1.65985e-014 2.3059e-014
rhumerus 76.4613 12.7748 13.2305
rradius 40.4748
rwrist -67.7375
rhand -48.0994 -3.89081
rfingers 7.12502
rthumb -20.7639 -32.7999
lclavicle -1.65985e-014 2.3059e-014
lhumerus 75.3279 -19.2412 -35.3323
lradius 30.8815
lwrist 26.9277
lhand -44.0951 18.6368
lfingers 7.12502
lthumb -16.9127 47.9204
rfemur -18.2131 -5.71772 25.3472
rtibia 49.9611
rfoot -25.0091 -11.5066
rtoes -11.381
lfemur -16.23 0.497981 -14.7138
ltibia 46.9776
lfoot -24.6346 -9.60621
ltoes -19.0573
125
root 0.479662 17.0538 0.894464 176.404 -9.11559 -173.364
lowerback 17.5676 -3.07027 0.496624
upperback 2.35705 -4.20769 1.5927
thorax -7.20225 -2.18801 2.42564
lowerneck -13.1038 -5.69093 -2.51832
upperneck -1.40537 -6.98602 10.004
head 2.37262 -2.90259 3.33558
rclavicle 1.72943e-014 -3.33958e-014
rhumerus 76.5808 13.4075 13.2709
rradius 40.504
rwrist -67.7128
rhand -48.0619 -3.6875
rfingers 7.12502
rthumb -20.7279 -32.6005
lclavicle 1.72943e-014 -3.33958e-014
lhumerus 75.8257 -19.6223 -35.7357
lradius 30.8943
lwrist 27.1293
lhand -43.8966 18.2445
lfingers 7.12502
lthumb -16.7217 47.5443
rfemur -17.0779 -5.52349 25.3448
rtibia 48.057
rfoot -24.6511 -11.8692
rtoes -11.6288
lfemur -14.8407 0.288024 -14.6989
ltibia 44.5837
lfoot -24.8653 -8.93656
ltoes -20.2219
126
root 0.474127 17.163 0.855323 176.484 -9.38457 -173.365
lowerback 17.0437 -3.15288 0.29753
upperback 2.28894 -4.33848 1.6316
thorax -6.96846 -2.24172 2.57339
lowerneck -12.9627 -5.61753 -2.31979
upperneck -1.21452 -6.94563 9.82301
head 2.38902 -2.89677 3.23978
rclavicle -2.66371e-014 2.3059e-014
rhumerus 76.7397 13.9721 13.2543
rradius 40.4631
rwrist -67.6358
rhand -47.8962 -3.64774
rfingers 7.12502
rthumb -20.5687 -32.578
lclavicle -2.66371e-014 2.3059e-014
lhumerus 76.3042 -19.9841 -36.2067
lradius 30.9142
lwrist 27.4708
lhand -43.6855 17.8422
lfingers 7.12502
lthumb -16.5184 47.1591
rfemur -16.0382 -5.25506 25.3426
rtibia 46.3321
rfoot -24.4793 -12.275
rtoes -12.0128
lfemur -13.5096 0.0224409 -14.6921
ltibia 42.3225
lfoot -25.0735 -8.12805
ltoes -20.2995
127
root 0.468804 17.2568 0.817103 176.546 -9.64448 -173.365
lowerback 16.4963 -3.23932 0.189174
upperback 2.24323 -4.46117 1.63291
thorax -6.70619 -2.29601 2.62352
lowerneck -12.8875 -5.5765 -2.15273
upperneck -0.982933 -6.94718 9.65522
head 2.43657 -2.90793 3.15085
rclavicle 4.1546e-014 -1.43125e-014
rhumerus 76.8099 14.534 13.003
rradius 40.3326
rwrist -67.3384
rhand -47.5715 -3.64545
rfingers 7.12502
rthumb -20.2566 -32.6092
lclavicle 4.1546e-014 -1.43125e-014
lhumerus 76.7418 -20.2941 -36.5
lradius 30.9134
lwrist 27.6408
lhand -43.4298 17.3995
lfingers 7.12502
lthumb -16.2722 46.7367
rfemur -15.0621 -4.8909 25.3519
rtibia 44.8063
rfoot -24.4586 -12.7847
rtoes -12.5502
lfemur -12.2266 -0.21598 -14.6783
ltibia 40.2257
lfoot -25.1371 -7.25266
ltoes -18.9736
128
root 0.463931 17.336 0.779488 176.612 -9.88444 -173.366
lowerback 15.9268 -3.33089 0.0778406
upperback 2.18939 -4.58935 1.63938
thorax -6.43864 -2.35308 2.67875
lowerneck -12.7577 -5.53086 -2.01749
upperneck -0.782786 -6.93533 9.49703
head 2.46471 -2.91457 3.07321
rclavicle -7.85199e-015 7.15625e-015
rhumerus 76.908 15.0975 12.6084
rradius 40.1076
rwrist -66.8656
rhand -47.1635 -3.59667
rfingers 7.12502
rthumb -19.8644 -32.6015
lclavicle -7.85199e-015 7.15625e-015
lhumerus 77.1434 -20.6366 -36.7382
lradius 30.8878
lwrist 27.7379
lhand -43.1567 17.0132
lfingers 7.12502
lthumb -16.0093 46.3717
rfemur -14.1942 -4.40292 25.384
rtibia 43.5006
rfoot -24.5933 -13.4107
rtoes -13.2308
lfemur -11.0135 -0.460123 -14.6627
ltibia 38.2889
lfoot -25.0239 -6.29721
ltoes -16.9517
129
root 0.459141 17.401 0.744323 176.668 -10.1248 -173.364
lowerback 15.3582 -3.40797 -0.00778166
upperback 2.15621 -4.69618 1.63379
thorax -6.1524 -2.40215 2.69962
lowerneck -12.819 -5.51355 -1.756
upperneck -0.492277 -6.98164 9.19324
head 2.5481 -2.94738 2.91502
rclavicle -5.96354e-015 -1.11319e-014
rhumerus 76.8741 15.6654 11.9629
rradius 39.8075
rwrist -66.0552
rhand -46.691 -3.65875
rfingers 7.12502
rthumb -19.4102 -32.71
lclavicle -5.96354e-015 -1.11319e-014
lhumerus 77.5096 -20.9345 -36.7627
lradius 30.8102
lwrist 27.5013
lhand -42.8554 16.734
lfingers 7.12502
lthumb -15.7191 46.1156
rfemur -13.4174 -3.83515 25.4385
rtibia 42.4033
rfoot -24.8651 -14.1282
rtoes -13.985
lfemur -9.87729 -0.713892 -14.6465
ltibia 36.5372
lfoot -24.8134 -5.26927
ltoes -15.0683
